<svg width="55" height="55" viewBox="0 0 55 55" fill="none" xmlns="http://www.w3.org/2000/svg">
<path d="M44.6875 0C47.5282 0 49.9571 1.00857 51.9743 3.02572C53.9914 5.04286 55 7.47179 55 10.3125V44.6875C55 47.5282 53.9914 49.9571 51.9743 51.9743C49.9571 53.9914 47.5282 55 44.6875 55H37.9557V33.6947H45.0814L46.1556 25.3874H37.9557V20.0879C37.9557 18.7511 38.2362 17.7485 38.7972 17.0801C39.3582 16.4117 40.4503 16.0775 42.0736 16.0775L46.4421 16.0417V8.62956C44.9382 8.41471 42.8136 8.30729 40.0684 8.30729C36.8218 8.30729 34.2258 9.26215 32.2803 11.1719C30.3347 13.0816 29.362 15.7791 29.362 19.2643V25.3874H22.2005V33.6947H29.362V55H10.3125C7.47179 55 5.04286 53.9914 3.02572 51.9743C1.00857 49.9571 0 47.5282 0 44.6875V10.3125C0 7.47179 1.00857 5.04286 3.02572 3.02572C5.04286 1.00857 7.47179 0 10.3125 0H44.6875Z" fill="white"/>
</svg>
