<svg width="56" height="55" viewBox="0 0 56 55" fill="none" xmlns="http://www.w3.org/2000/svg">
<path d="M27.9925 18.3294C22.8511 18.3294 18.6553 22.4503 18.6553 27.5C18.6553 32.5497 22.8511 36.6706 27.9925 36.6706C33.1339 36.6706 37.3296 32.5497 37.3296 27.5C37.3296 22.4503 33.1339 18.3294 27.9925 18.3294ZM55.9969 27.5C55.9969 23.7024 56.0319 19.9393 55.8148 16.1486C55.5976 11.7456 54.5749 7.83797 51.2968 4.61829C48.0116 1.39173 44.04 0.394186 39.5571 0.180917C35.6905 -0.032352 31.859 0.00204631 27.9995 0.00204631C24.1329 0.00204631 20.3014 -0.032352 16.4419 0.180917C11.9589 0.394186 7.98033 1.39861 4.70217 4.61829C1.41701 7.84485 0.401346 11.7456 0.184203 16.1486C-0.0329396 19.9461 0.00208348 23.7093 0.00208348 27.5C0.00208348 31.2907 -0.0329396 35.0607 0.184203 38.8514C0.401346 43.2544 1.42402 47.162 4.70217 50.3817C7.98733 53.6083 11.9589 54.6058 16.4419 54.8191C20.3084 55.0324 24.1399 54.998 27.9995 54.998C31.866 54.998 35.6975 55.0324 39.5571 54.8191C44.04 54.6058 48.0186 53.6014 51.2968 50.3817C54.5819 47.1552 55.5976 43.2544 55.8148 38.8514C56.0389 35.0607 55.9969 31.2976 55.9969 27.5V27.5ZM27.9925 41.6102C20.0422 41.6102 13.626 35.3084 13.626 27.5C13.626 19.6916 20.0422 13.3898 27.9925 13.3898C35.9427 13.3898 42.3589 19.6916 42.3589 27.5C42.3589 35.3084 35.9427 41.6102 27.9925 41.6102ZM42.9473 16.1073C41.0911 16.1073 39.5921 14.6351 39.5921 12.812C39.5921 10.9888 41.0911 9.5166 42.9473 9.5166C44.8035 9.5166 46.3025 10.9888 46.3025 12.812C46.3031 13.2449 46.2167 13.6736 46.0482 14.0737C45.8798 14.4737 45.6327 14.8372 45.321 15.1433C45.0094 15.4494 44.6393 15.6922 44.2319 15.8576C43.8246 16.023 43.3881 16.1078 42.9473 16.1073V16.1073Z" fill="white"/>
</svg>
