<svg width="93" height="54" viewBox="0 0 93 54" fill="none" xmlns="http://www.w3.org/2000/svg">
<g clip-path="url(#clip0_190_140)">
<path d="M2.19493 5.24473H7.2211V7.34101H2.19493V12.8764H0V0H7.58469V2.09628H2.19493V5.24473Z" fill="white"/>
<path d="M9.37598 9.80326V4.16833H11.5682V9.19779C11.5682 10.4841 12.1724 11.0357 13.2873 11.0357C14.4021 11.0357 15.0037 9.95933 15.0037 9.95933V4.16833H17.1986V12.8871H15.1507V11.6062C14.878 12.0549 14.497 12.4268 14.0431 12.6875C13.5892 12.9481 13.0772 13.089 12.5548 13.097C10.8918 13.097 9.37598 11.9022 9.37598 9.80326Z" fill="white"/>
<path d="M18.6958 4.16835H20.3961V1.56348H22.5884V4.16835H25.2031V6.1543H22.5884V9.65796C22.5884 10.7344 23.1231 11.0357 23.722 11.0357C24.0499 11.0209 24.367 10.9126 24.6363 10.7236L25.4383 12.5266C24.8094 12.9081 24.0873 13.1056 23.353 13.097C21.6714 13.097 20.3935 11.8646 20.3935 10.0078V6.14353H18.6958V4.16835Z" fill="white"/>
<path d="M26.9915 9.80326V4.16833H29.1864V9.19779C29.1864 10.4841 29.7879 11.0357 30.9028 11.0357C32.0176 11.0357 32.6218 9.95933 32.6218 9.95933V4.16833H34.8141V12.8871H32.7715V11.6062C32.4985 12.0545 32.1174 12.4262 31.6636 12.6868C31.2098 12.9474 30.698 13.0885 30.1756 13.097C28.51 13.097 26.9915 11.9022 26.9915 9.80326Z" fill="white"/>
<path d="M42.9468 4.21135L42.1796 6.1973C41.85 6.05676 41.4947 5.98797 41.1369 5.99547C40.7404 6.00602 40.3534 6.12023 40.0141 6.32688C39.6747 6.53353 39.3946 6.82551 39.2013 7.17412V12.8763H37.0063V4.16829H39.0917V5.43575C39.0917 5.43575 39.8402 3.94763 41.447 3.94763C41.9578 3.95376 42.4642 4.04281 42.9468 4.21135V4.21135Z" fill="white"/>
<path d="M51.9192 8.47389C51.9192 8.64073 51.9192 8.97173 51.9005 9.30272H45.4306C45.5964 10.075 46.5 11.068 47.8635 11.068C48.7369 11.0846 49.5845 10.7694 50.2376 10.1854L51.3364 11.8403C50.3536 12.6443 49.1272 13.0859 47.8608 13.0916C47.2544 13.1071 46.651 13.0002 46.0862 12.7772C45.5215 12.5542 45.0068 12.2197 44.5725 11.7933C44.1382 11.367 43.7931 10.8575 43.5576 10.2947C43.322 9.73204 43.2007 9.12757 43.2009 8.51695C43.2009 5.96051 45.0456 3.94227 47.548 3.94227C49.9274 3.93689 51.9192 5.78291 51.9192 8.47389ZM49.7269 7.70158C49.6895 6.9481 48.9971 5.93629 47.5507 5.93629C46.1444 5.93629 45.5055 6.92927 45.4306 7.70158H49.7269Z" fill="white"/>
<path d="M54.8253 10.1907C55.1109 10.1907 55.39 10.2759 55.6274 10.4356C55.8648 10.5953 56.0498 10.8222 56.1591 11.0878C56.2684 11.3533 56.297 11.6455 56.2413 11.9273C56.1856 12.2092 56.0481 12.4681 55.8462 12.6714C55.6443 12.8746 55.387 13.013 55.107 13.0691C54.8269 13.1251 54.5366 13.0964 54.2728 12.9864C54.009 12.8764 53.7836 12.6901 53.6249 12.4512C53.4663 12.2122 53.3816 11.9312 53.3816 11.6438C53.3802 11.4526 53.4166 11.263 53.4886 11.0861C53.5607 10.9091 53.667 10.7484 53.8013 10.6131C53.9356 10.4779 54.0954 10.3709 54.2712 10.2984C54.447 10.2259 54.6353 10.1893 54.8253 10.1907V10.1907Z" fill="white"/>
<path d="M2.19493 25.6747H7.31199V27.771H2.19493V31.2316H7.86006V33.3279H0V20.4515H7.75312V22.5478H2.19493V25.6747Z" fill="white"/>
<path d="M9.15664 24.6199H11.7339L13.5064 27.3109L15.2415 24.6199H17.7466L14.7309 28.8205L17.9391 33.3279H15.3164L13.3594 30.349L11.405 33.3279H8.9187L12.1269 28.8205L9.15664 24.6199Z" fill="white"/>
<path d="M21.3451 24.6199V25.7608C21.6374 25.3363 22.0286 24.9903 22.4843 24.753C22.9401 24.5156 23.4467 24.3942 23.9598 24.3992C26.2082 24.3992 28.1812 26.2829 28.1812 28.9739C28.1812 31.6649 26.2082 33.5485 23.9598 33.5485C23.4939 33.5596 23.0316 33.4644 22.6075 33.2701C22.1834 33.0757 21.8085 32.7873 21.5109 32.4264V37.5581H19.3186V24.6199H21.3451ZM21.5109 30.2709C21.72 30.6367 22.0205 30.9411 22.3825 31.154C22.7445 31.3668 23.1555 31.4808 23.5748 31.4846C25.0559 31.4846 25.9515 30.4082 25.9515 28.9658C25.9515 27.5234 25.0559 26.4443 23.5748 26.4443C23.1555 26.4481 22.7445 26.5621 22.3825 26.7749C22.0205 26.9878 21.72 27.2922 21.5109 27.658V30.2709Z" fill="white"/>
<path d="M37.9209 28.9254C37.9209 29.0923 37.9209 29.4233 37.9022 29.7543H31.435C31.5981 30.5266 32.5044 31.5195 33.8652 31.5195C34.7386 31.5361 35.5862 31.221 36.2393 30.6369L37.3381 32.2918C36.3553 33.0959 35.1289 33.5374 33.8625 33.5432C33.2561 33.5586 32.6527 33.4517 32.0879 33.2287C31.5232 33.0057 31.0085 32.6712 30.5742 32.2449C30.1399 31.8185 29.7948 31.309 29.5593 30.7463C29.3237 30.1836 29.2024 29.5791 29.2026 28.9685C29.2026 26.412 31.0473 24.3938 33.5524 24.3938C35.9291 24.3884 37.9209 26.2344 37.9209 28.9254ZM35.7286 28.1531C35.6912 27.3996 34.9988 26.3878 33.5551 26.3878C32.1114 26.3878 31.5072 27.3808 31.435 28.1531H35.7286Z" fill="white"/>
<path d="M45.4681 24.6629L44.7008 26.6488C44.3723 26.508 44.0178 26.4392 43.6608 26.447C43.264 26.4579 42.8768 26.5722 42.5371 26.7788C42.1974 26.9854 41.9167 27.2772 41.7225 27.6257V33.3279H39.5303V24.6198H41.6129V25.8873C41.6129 25.8873 42.3615 24.3992 43.9709 24.3992C44.4809 24.4051 44.9865 24.4941 45.4681 24.6629V24.6629Z" fill="white"/>
<path d="M48.0453 20.3411C48.3308 20.3411 48.61 20.4263 48.8474 20.586C49.0848 20.7457 49.2698 20.9726 49.3791 21.2381C49.4884 21.5037 49.5169 21.7958 49.4612 22.0777C49.4055 22.3596 49.268 22.6185 49.0661 22.8218C48.8642 23.025 48.607 23.1634 48.3269 23.2194C48.0469 23.2755 47.7566 23.2467 47.4928 23.1368C47.229 23.0268 47.0035 22.8405 46.8449 22.6016C46.6863 22.3626 46.6016 22.0816 46.6016 21.7942C46.6002 21.603 46.6365 21.4134 46.7086 21.2365C46.7806 21.0595 46.8869 20.8987 47.0213 20.7635C47.1556 20.6283 47.3153 20.5213 47.4911 20.4488C47.6669 20.3763 47.8553 20.3397 48.0453 20.3411V20.3411ZM46.9411 24.6198H49.1334V33.3386H46.9411V24.6198Z" fill="white"/>
<path d="M59.814 28.9254C59.814 29.0923 59.814 29.4233 59.7952 29.7543H53.3281C53.4912 30.5266 54.3975 31.5195 55.7583 31.5195C56.6317 31.5361 57.4793 31.221 58.1323 30.6369L59.2311 32.2918C58.2484 33.0959 57.022 33.5374 55.7556 33.5432C55.1491 33.5586 54.5458 33.4517 53.981 33.2287C53.4162 33.0057 52.9016 32.6712 52.4673 32.2449C52.033 31.8185 51.6879 31.309 51.4523 30.7463C51.2168 30.1836 51.0955 29.5791 51.0957 28.9685C51.0957 26.412 52.9404 24.3938 55.4428 24.3938C57.8222 24.3884 59.814 26.2344 59.814 28.9254ZM57.6217 28.1531C57.5843 27.3996 56.8918 26.3878 55.4455 26.3878C54.0392 26.3878 53.4003 27.3808 53.3281 28.1531H57.6217Z" fill="white"/>
<path d="M69.2433 27.6794V33.3305H67.051V28.2311C67.051 26.9825 66.2837 26.447 65.332 26.447C64.2011 26.447 63.6156 27.5691 63.6156 27.5691V33.3278H61.4233V24.6198H63.4686V25.8872C63.734 25.4322 64.1134 25.0552 64.569 24.794C65.0246 24.5329 65.5403 24.3967 66.0645 24.3991C67.7461 24.3884 69.2433 25.5832 69.2433 27.6794Z" fill="white"/>
<path d="M77.6515 30.4216L79.0952 31.8936C78.6532 32.4146 78.1038 32.8325 77.4851 33.1183C76.8665 33.4041 76.1934 33.5509 75.5127 33.5485C74.9159 33.5485 74.3249 33.4302 73.7734 33.2003C73.222 32.9704 72.721 32.6334 72.299 32.2086C71.8769 31.7838 71.5421 31.2795 71.3137 30.7245C71.0853 30.1695 70.9678 29.5746 70.9678 28.9738C70.9678 28.3731 71.0853 27.7782 71.3137 27.2232C71.5421 26.6682 71.8769 26.1639 72.299 25.7391C72.721 25.3143 73.222 24.9773 73.7734 24.7474C74.3249 24.5175 74.9159 24.3992 75.5127 24.3992C76.1845 24.3942 76.8493 24.536 77.4613 24.8147C78.0734 25.0935 78.618 25.5026 79.0578 26.0138L77.5419 27.3754C77.2883 27.0854 76.976 26.8533 76.6261 26.6945C76.2761 26.5358 75.8965 26.4542 75.5127 26.4551C74.0316 26.4551 73.0825 27.6149 73.0825 28.9765C73.0825 30.3382 74.0316 31.4953 75.5127 31.4953C75.9291 31.5051 76.3416 31.4124 76.7143 31.2253C77.087 31.0382 77.4088 30.7623 77.6515 30.4216V30.4216Z" fill="white"/>
<path d="M88.6477 28.9254C88.6477 29.0923 88.6477 29.4233 88.629 29.7543H82.1591C82.3249 30.5266 83.2285 31.5195 84.5893 31.5195C85.4637 31.5368 86.3124 31.2216 86.9661 30.6369L88.0622 32.2918C87.0794 33.0959 85.8531 33.5374 84.5867 33.5432C83.9802 33.5586 83.3768 33.4517 82.8121 33.2287C82.2473 33.0057 81.7326 32.6712 81.2983 32.2449C80.864 31.8185 80.5189 31.309 80.2834 30.7463C80.0478 30.1836 79.9266 29.5791 79.9268 28.9685C79.9268 26.412 81.7715 24.3938 84.2765 24.3938C86.6613 24.3884 88.6477 26.2344 88.6477 28.9254ZM86.4528 28.1531C86.418 27.3996 85.7229 26.3878 84.2792 26.3878C82.8355 26.3878 82.2313 27.3808 82.1591 28.1531H86.4528Z" fill="white"/>
<path d="M91.5563 30.6423C91.8418 30.6423 92.1209 30.7275 92.3583 30.8871C92.5957 31.0468 92.7808 31.2738 92.8901 31.5393C92.9993 31.8048 93.0279 32.097 92.9722 32.3789C92.9165 32.6607 92.779 32.9197 92.5771 33.1229C92.3752 33.3261 92.118 33.4645 91.8379 33.5206C91.5579 33.5767 91.2676 33.5479 91.0038 33.4379C90.74 33.3279 90.5145 33.1417 90.3559 32.9027C90.1973 32.6637 90.1126 32.3828 90.1126 32.0954C90.1112 31.9042 90.1475 31.7146 90.2196 31.5376C90.2916 31.3607 90.3979 31.1999 90.5323 31.0647C90.6666 30.9294 90.8263 30.8225 91.0021 30.7499C91.1779 30.6774 91.3663 30.6408 91.5563 30.6423Z" fill="white"/>
<path d="M0 40.903H2.19493V51.683H7.64083V53.7793H0V40.903Z" fill="white"/>
<path d="M16.4847 48.0959V53.7793H14.4581V52.676C14.1176 53.1047 13.6825 53.4475 13.1873 53.6774C12.6921 53.9072 12.1505 54.0176 11.6055 54C9.98005 54 8.48022 52.9236 8.48022 51.0749C8.48022 49.4011 9.99877 48.1874 11.8809 48.1874C13.469 48.1874 14.287 48.8117 14.287 48.8117V48.3166C14.287 47.1756 13.1909 46.807 12.4156 46.807C11.5174 46.8524 10.6362 47.0707 9.81964 47.4501L9.10582 45.631C10.1811 45.1385 11.3442 44.8694 12.5252 44.8398C15.0223 44.8398 16.4847 46.1073 16.4847 48.0959ZM14.2924 51.1475V50.246C13.6779 49.9461 13.0022 49.7949 12.3194 49.8047C11.643 49.8047 10.7153 50.1007 10.7153 51.0372C10.7153 51.9736 11.6109 52.1593 12.2873 52.1593C12.6757 52.1542 13.058 52.0605 13.4053 51.8853C13.7526 51.71 14.0559 51.4578 14.2924 51.1475V51.1475Z" fill="white"/>
<path d="M18.9336 39.8723H21.1259V45.9809C21.4218 45.6167 21.7959 45.3248 22.2201 45.1271C22.6442 44.9295 23.1074 44.8313 23.5748 44.8399C25.8232 44.8399 27.7989 46.7236 27.7989 49.4146C27.7989 52.1055 25.8232 53.9892 23.5748 53.9892C23.0597 54.0079 22.5487 53.8924 22.091 53.6539C21.6334 53.4153 21.2448 53.0618 20.9628 52.6276V53.7686H18.9336V39.8723ZM21.1259 50.7224C21.3352 51.0885 21.6361 51.3932 21.9987 51.6061C22.3612 51.819 22.7727 51.9327 23.1925 51.936C24.6736 51.936 25.5692 50.8596 25.5692 49.4172C25.5692 47.9749 24.6736 46.8958 23.1925 46.8958C22.7727 46.8991 22.3612 47.0128 21.9987 47.2257C21.6361 47.4386 21.3352 47.7433 21.1259 48.1094V50.7224Z" fill="white"/>
<path d="M30.7023 51.0938C30.9878 51.0938 31.2669 51.179 31.5043 51.3387C31.7418 51.4984 31.9268 51.7253 32.0361 51.9908C32.1453 52.2564 32.1739 52.5485 32.1182 52.8304C32.0625 53.1123 31.925 53.3712 31.7231 53.5744C31.5212 53.7777 31.264 53.9161 30.9839 53.9721C30.7039 54.0282 30.4136 53.9994 30.1498 53.8894C29.886 53.7795 29.6605 53.5932 29.5019 53.3542C29.3433 53.1153 29.2586 52.8343 29.2586 52.5469C29.2572 52.3557 29.2935 52.1661 29.3656 51.9891C29.4376 51.8122 29.5439 51.6514 29.6783 51.5162C29.8126 51.381 29.9723 51.274 30.1481 51.2015C30.3239 51.129 30.5123 51.0924 30.7023 51.0938V51.0938Z" fill="white"/>
</g>
<defs>
<clipPath id="clip0_190_140">
<rect width="93" height="54" fill="white"/>
</clipPath>
</defs>
</svg>
