<svg width="49" height="55" viewBox="0 0 49 55" fill="none" xmlns="http://www.w3.org/2000/svg">
<path d="M49 22.5546C44.1833 22.566 39.4848 21.0907 35.5681 18.3373V37.5406C35.5668 41.0972 34.4599 44.5687 32.3954 47.4909C30.3309 50.413 27.4073 52.6465 24.0154 53.8927C20.6236 55.139 16.9251 55.3385 13.4147 54.4646C9.90421 53.5908 6.74906 51.6852 4.3711 49.0027C1.99314 46.3203 0.505725 42.9887 0.107735 39.4536C-0.290255 35.9185 0.420154 32.3483 2.14397 29.2204C3.86778 26.0925 6.52284 23.556 9.75412 21.9501C12.9854 20.3442 16.6389 19.7454 20.226 20.2337V29.8923C18.5845 29.3852 16.8219 29.4005 15.1898 29.936C13.5576 30.4714 12.1395 31.4997 11.1379 32.8739C10.1363 34.2481 9.60249 35.898 9.61263 37.588C9.62277 39.2779 10.1764 40.9215 11.1944 42.2841C12.2124 43.6466 13.6427 44.6584 15.2811 45.1749C16.9196 45.6914 18.6823 45.6863 20.3176 45.1603C21.9529 44.6342 23.3771 43.6142 24.3869 42.2458C25.3967 40.8773 25.9404 39.2306 25.9403 37.5406V0H35.5681C35.5615 0.798497 35.6296 1.59591 35.7716 2.38215C36.1062 4.13731 36.8018 5.80699 37.8159 7.28906C38.8301 8.77113 40.1414 10.0344 41.6698 11.0017C43.8441 12.4137 46.3933 13.1663 49 13.1657V22.5546Z" fill="white"/>
</svg>
